# xmcd
#
# Track frame offsets:
#	150
#	26070
#	55355
#	79130
#	109382
#	135685
#	161607
#	180785
#	209185
#	234255
#
# Disc length: 3583 seconds
# Revision: 0
# Processed by: cddbd v1.5.2PL0 Copyright (c) Steve Scherf et al.
# Submitted via: dBpowerAMP V12.0
#
DISCID=870dfd0a
DTITLE=Various Artist - The History of the House Sound of Chicago
DYEAR=1987
DGENRE=House
TTITLE0=Blaze - Whatcha Gonna Do (Vocal Mix)
TTITLE1=Mel and Kim - Showing Out (Get Fresh At The Weekend) (The Mortgage Mix)
TTITLE2=Cleavage - Barah (The House Mix)
TTITLE3=Phil Fearon - Ain't Nothing But a House Party
TTITLE4=Harlequin Four's feat. Barbara Tucker - Set It Off
TTITLE5=Jack N Chill - The Jack That House Built
TTITLE6=Raze - Jack the Groove
TTITLE7=Kissing the Pink - Certain Things Are Likely (Garage Mix)
TTITLE8=Cultural Vibe - Ma Foom Bey (Love Chant Version)
TTITLE9=Mirage - Jack Mix #2 (featuring: Jack Your Body, Respectable, Showing Out, Male Stripper, Axel F., Jackin', Underwater)
EXTD=
EXTT0=
EXTT1=
EXTT2=
EXTT3=
EXTT4=
EXTT5=
EXTT6=
EXTT7=
EXTT8=
EXTT9=
PLAYORDER=
